<?xml version="1.0" encoding="UTF-8"?>
<svg width="400px" height="400px" viewBox="0 0 400 400" version="1.1" xmlns="http://www.w3.org/2000/svg" xmlns:xlink="http://www.w3.org/1999/xlink">
    <!-- Generator: Sketch 63.1 (92452) - https://sketch.com -->
    <title>bigwax-manufact</title>
    <desc>Created with Sketch.</desc>
    <g id="bigwax-manufact" stroke="none" stroke-width="1" fill="none" fill-rule="evenodd">
        <rect fill="#BFFFE3" x="0" y="0" width="400" height="400"></rect>
        <polygon id="Fill-1" points="0 400 400 400 400 0 0 0"></polygon>
        <path d="M191.301204,265.785619 C209.584154,265.785619 224.024471,258.409184 224.024471,242.678429 C224.024471,226.954441 213.440317,219.892689 192.261862,219.892689 L168.840744,219.892689 L168.840744,265.782236 L191.301204,265.785619 Z M190.337163,173.685076 C210.226847,173.685076 221.778425,166.301873 221.778425,152.185136 C221.778425,135.818248 207.987567,130.360363 192.589974,130.360363 L168.847509,130.360363 L168.847509,173.685076 L190.337163,173.685076 Z M88,312 L88,88 L228.841292,88 C276.316075,88 305.825872,105.970755 305.825872,143.198066 C305.825872,172.717341 290.746244,190.051964 259.633095,198.071299 L259.633095,198.720967 C289.467622,202.568218 310,226.314924 310,250.065015 C310,302.04858 271.181289,312 220.493037,312 L88,312 Z" id="Fill-2" fill="#FA646A"></path>
    </g>
</svg>