<?xml version="1.0" encoding="UTF-8"?>
<svg width="400px" height="400px" viewBox="0 0 400 400" version="1.1" xmlns="http://www.w3.org/2000/svg" xmlns:xlink="http://www.w3.org/1999/xlink">
    <!-- Generator: Sketch 63.1 (92452) - https://sketch.com -->
    <title>kairos-club-bigwaxio</title>
    <desc>Created with Sketch.</desc>
    <g id="kairos-club-bigwaxio" stroke="none" stroke-width="1" fill="none" fill-rule="evenodd">
        <rect fill="#FFE1C3" x="0" y="0" width="400" height="400"></rect>
        <g id="Group-4" transform="translate(58.000000, 58.000000)">
            <polygon id="Fill-1" points="0 284 284 284 284 0 0 0"></polygon>
            <path d="M251,248.577293 C251,253.390843 247.373683,257 242.537245,257 L184.109599,257 C179.676451,257 175.646845,253.390843 175.646845,248.577293 C175.646845,244.165374 179.676451,240.156598 184.109599,240.156598 L193.377163,240.156598 L121.650324,135.482252 L83.3704565,173.580721 L83.3704565,240.156598 L117.218946,240.156598 C122.053614,240.156598 125.679678,244.165374 125.679678,248.577293 C125.679678,253.390843 122.053614,257 117.218946,257 L41.4627545,257 C37.029859,257 33,253.390843 33,248.577293 C33,244.165374 37.029859,240.156598 41.4627545,240.156598 L66.4454531,240.156598 L66.4454531,44.4435305 L41.4627545,44.4435305 C37.029859,44.4435305 33,40.8326125 33,36.0210748 C33,31.6089049 37.029859,28 41.4627545,28 L117.218946,28 C122.053614,28 125.679678,31.6089049 125.679678,36.0210748 C125.679678,40.8326125 122.053614,44.4435305 117.218946,44.4435305 L83.3704565,44.4435305 L83.3704565,149.517245 L188.945784,44.4435305 L175.243556,44.4435305 C170.81243,44.4435305 166.782824,40.8326125 166.782824,36.0210748 C166.782824,31.6089049 170.81243,28 175.243556,28 L226.017301,28 C230.851716,28 234.480056,31.6089049 234.480056,36.0210748 C234.480056,40.8326125 230.851716,44.4435305 226.017301,44.4435305 L212.720385,44.4435305 L133.337624,123.450639 L213.525194,240.156598 L242.537245,240.156598 C247.373683,240.156598 251,244.165374 251,248.577293" id="Fill-2" fill="#6666FF"></path>
        </g>
    </g>
</svg>