<?xml version="1.0" encoding="UTF-8"?>
<svg width="400px" height="400px" viewBox="0 0 400 400" version="1.1" xmlns="http://www.w3.org/2000/svg" xmlns:xlink="http://www.w3.org/1999/xlink">
    <!-- Generator: Sketch 63.1 (92452) - https://sketch.com -->
    <title>lelp</title>
    <desc>Created with Sketch.</desc>
    <g id="lelp" stroke="none" stroke-width="1" fill="none" fill-rule="evenodd">
        <rect fill="#00FFC8" x="0" y="0" width="400" height="400"></rect>
        <g id="lp-2" transform="translate(84.000000, 95.000000)" fill="#000000" fill-rule="nonzero">
            <path d="M83.9961649,153.761955 C83.9961649,144.612115 76.400767,143.049947 69.2521572,143.049947 L53.1677852,143.049947 L53.1677852,14.9521785 C53.1677852,2.23166844 49.5934803,0 37.3068073,0 L14.7440077,0 C7.59539789,0 0,1.56216791 0,10.7120085 C0,19.9616869 8.26704976,21.3873892 14.4959626,21.4233063 L31.7219559,21.424017 L31.7219559,143.049947 L14.7440077,143.049947 C7.59539789,143.049947 0,144.612115 0,153.761955 C0,163.011634 8.26704976,164.437336 14.4959626,164.473964 L69.2521572,164.473964 C75.5071908,164.473964 83.9961649,163.134963 83.9961649,153.761955 Z M138.727709,210 C147.886865,210 149.450623,202.635494 149.450623,195.270988 L149.450623,152.199787 L153.69511,156.216791 C160.620326,162.688629 165.088207,168.937301 174.694151,168.937301 L189.214765,168.937301 C195.023011,168.937301 201.948226,162.911796 206.416107,159.341126 L219.372963,149.075452 C231.88303,139.256111 233,133.453773 233,118.05526 L233,95.0690755 C233,79.8937301 231.88303,73.8682253 219.372963,64.0488842 L206.416107,54.0063762 C200.607862,49.5430393 193.682646,44.1870351 188.544583,44.1870351 L173.800575,44.1870351 C167.768936,44.1870351 159.279962,52.2210414 153.69511,57.130712 L149.450623,60.9245484 L149.450623,58.2465462 C149.450623,51.1052072 147.440077,44.1870351 138.727709,44.1870351 C129.01972,44.1870351 128.028219,52.241586 128.004794,59.7505667 L128.004794,195.270988 C128.004794,202.635494 129.568552,210 138.727709,210 Z M183.629914,147.513284 L178.045062,147.513284 C175.364334,147.513284 172.013423,144.612115 168.885906,141.487779 L152.57814,126.089267 C150.344199,124.080765 149.450623,120.063762 149.450623,116.939426 L149.450623,95.9617428 C149.450623,91.2752391 151.014382,88.8204038 155.482263,84.5802338 L168.885906,71.8597237 C171.119847,69.6280553 174.917546,65.6110521 178.045062,65.6110521 L183.629914,65.6110521 C186.534036,65.6110521 188.991371,67.6195537 191.001918,69.4048884 L207.08629,82.794899 C210.4372,85.696068 211.554171,88.1509033 211.554171,92.1679065 L211.554171,120.956429 C211.554171,124.973433 210.4372,127.428268 207.08629,130.329437 L191.001918,143.719447 C188.991371,145.504782 186.534036,147.513284 183.629914,147.513284 Z" id="lp"></path>
        </g>
    </g>
</svg>