<?xml version="1.0" encoding="UTF-8"?>
<svg width="400px" height="401px" viewBox="0 0 400 401" version="1.1" xmlns="http://www.w3.org/2000/svg" xmlns:xlink="http://www.w3.org/1999/xlink">
    <!-- Generator: Sketch 63.1 (92452) - https://sketch.com -->
    <title>squeezer</title>
    <desc>Created with Sketch.</desc>
    <g id="squeezer" stroke="none" stroke-width="1" fill="none" fill-rule="evenodd" transform="translate(0.000000, 0.000000)">
        <rect fill="#FFFF00" x="0" y="0" width="400" height="400"></rect>
        <path d="M199.999825,159.994003 L199.231417,159.994003 L199.231417,159.985079 C185.575786,159.77517 174.570127,148.450452 174.570127,134.501517 C174.570127,120.422639 185.782004,109.008317 199.615445,109.008317 C213.444678,109.008317 224.660764,120.422639 224.660764,134.501517 L224.651646,134.893133 L263.960729,134.893133 L263.965639,134.501517 C263.965639,98.3272473 235.153684,69 199.615445,69 C164.077207,69 135.265954,98.3272473 135.265954,134.501517 C135.265954,170.544773 163.86678,199.782773 199.231417,199.99768 L199.231417,200.001606 L199.999825,200.001606 C224.683911,200.001606 244.695126,220.371677 244.695126,245.501464 C244.695126,270.627324 224.683911,290.997395 199.999825,290.997395 C175.316089,290.997395 155.304874,270.627324 155.304874,245.501464 L116,245.501464 C116,292.720217 153.607083,331 199.999825,331 C246.392917,331 284,292.720217 284,245.501464 C284,198.278784 246.392917,159.994003 199.999825,159.994003" id="Fill-4" fill="#FF00FF"></path>
    </g>
</svg>